<svg width="22" height="20" viewBox="0 0 22 24" fill="none" xmlns="http://www.w3.org/2000/svg">
<path d="M16.5785 10.1065L16.6161 10.4043L16.8967 10.5111C19.5995 11.5392 21.5 13.3056 21.5001 15.375C21.5001 15.6311 21.2068 16 20.6251 16H12.8334H12.3334V16.5V21.3231L11.0031 23.5C11.0021 23.5 11.0011 23.5 11.0001 23.5C10.999 23.5 10.998 23.5 10.9969 23.5L9.66667 21.3231V16.5V16H9.16667H1.375C0.793249 16 0.5 15.6311 0.5 15.375C0.5 13.3248 2.37348 11.5495 5.10325 10.5111L5.38387 10.4043L5.42153 10.1065L6.12249 4.56272L6.19364 4H5.62644H3.20833C2.62658 4 2.33333 3.63105 2.33333 3.375V1.125C2.33333 0.868948 2.62658 0.5 3.20833 0.5H18.7917C19.3734 0.5 19.6667 0.868948 19.6667 1.125V3.375C19.6667 3.63105 19.3734 4 18.7917 4H16.3736H15.8064L15.8775 4.56272L16.5785 10.1065ZM9.64161 21.2822C9.64171 21.2823 9.6418 21.2825 9.6419 21.2826L9.64172 21.2823L9.64161 21.2822Z" fill="#189ab4" stroke="gray"/>
</svg>
